<svg id="emdLogo" data-name="emd_logo" xmlns="http://www.w3.org/2000/svg" viewBox="0 0 350 200"><defs></defs><path d="M196.24,36.54c-9.17,1.76-17.76,6.14-26.47,9.38-7.52,2.8-15,5.59-22.61,8.25l-.68.13c8.73-4,17.5-7.89,26.3-11.74,5.26-1.93,10.71-4.41,16.08-5.81,2.06-.54,4.17-1.25,5.23-3.23.29-.55.66-1.64-.2-1.89-3.56-1-8.07.81-11.63,1.56a130.07,130.07,0,0,0-13.11,3.67c-2.66.85-5.31,1.75-8,2.68a.65.65,0,0,0-.23,0C146.46,43.16,132.74,49,119.4,55.7c-1.06.53-2.1,1.07-3.15,1.62A4.9,4.9,0,0,1,113.16,59c-2,1.1-4,2.23-6,3.36.28-.79.54-1.59.81-2.39-.9.59-1.8,1.2-2.68,1.82-.13.36-.25.73-.38,1.09a5.93,5.93,0,0,0-1.26,1.5l0,0-5,2c-.8.52-1.61,1-2.45,1.46a4.72,4.72,0,0,1-2.4.57l-1.62.69c.29-.25.58-.51.86-.78a3.84,3.84,0,0,1-1.2-.44c-3,2.25-6.94,4.33-9.4,4.45-.65,0-1.49,1.05-1.88,2A29.82,29.82,0,0,0,76,77.06c-.24-.33-1,.24-1.17.59a5.14,5.14,0,0,0-.41.81,7.3,7.3,0,0,0-1.43,2,2.4,2.4,0,0,0-.21,1.82c-.8.34-1.62,1.85-.77,2,.11,0,.23,0,.35.06-.28.61-.56,1.22-.82,1.84a1.28,1.28,0,0,0-.13.7c-1,.82-1.31,3.13.36,2.07l.55-.35a.66.66,0,0,0-.16.49,10.7,10.7,0,0,0,.4,1.55.37.37,0,0,0,.28.22l0,.09c-.23,1,1.06.15,1.27-.22,0,0,0-.08.07-.12,2.64-.81,5-2.74,7.37-4l6.81-3.57c-.79,4-1.74,8-2.9,12A215.47,215.47,0,0,1,74.3,125.45l-6.14,2.93C63.44,130.66,58.3,133,55,137.24c-.44.56-1.3,2.73.24,2.47l.09,0c0,.09-.06.19-.09.28-.58.08-1.37,1.57-.54,1.47a17.2,17.2,0,0,0,4-1.27,31.54,31.54,0,0,0-3.24,2.9A2.89,2.89,0,0,0,54,144.7c-.84,1-1.63,2-2.32,3-.34.5-.77,2.1.42,1.56a13,13,0,0,0,3.37-2.27c.76-.67,1.54-1.31,2.33-1.93a18.6,18.6,0,0,0,1.76-.8l1.26-.38-3.08,2.27c-1,.72-1.51,3.39.19,2.18l9-6.49c-1,2.58-2.07,5.17-3.08,7.76-.34.72-.69,1.43-1,2.15l-3,6.33a6.37,6.37,0,0,1-1.07,1.07c-.1.08-.18.36,0,.24s.43-.29.63-.44q-2.54,5.35-5.08,10.7c-.09.2-.19.38-.28.58s-.36.4-.52.6c-1.38,1.79-3.85,3.85-5,5.86-.5.88-.85,3.48.27,4.26a28.3,28.3,0,0,0-1,3.12,1.59,1.59,0,0,0,0,.7l-.3.19a.71.71,0,0,0-.35-.06,2.51,2.51,0,0,0-2.43,2.62c0,.53.29,1,.87.67,2.53-1.4,4.82-3.21,7.22-4.82,1.6-1.08,3.27-2.08,5-3,0,.23-.06.46-.08.69-.14,1.73,1.86-.11,2.06-.91.09-.35.19-.68.28-1,1.09-.58,2.19-1.15,3.28-1.71-.47,2.46-.85,4.93-1.09,7.39-.16,1.72,1.93.16,2.17-.68.81-2.8,1.56-5.61,2.29-8.43l.46-.24c9.75-5,19.8-9.58,29.88-13.89,20.54-8.78,41.8-15.73,62.43-24.27.89-.36,1.95-2.85.37-2.27-20.86,7.7-41.89,15-62.35,23.74-10.12,4.33-20.14,9-29.91,14.09l-.19.1v0c9.16-4.67,18.27-9.45,27.49-14q5.39-2.66,10.79-5.26c5.06-1.77,10.06-3.72,15-5.79,1.33-.56,2.84-1.08,4.34-1.66,10.59-3.15,21.34-5.89,31.57-10.1.9-.37,3.12-3.13,1.35-3.68-4-1.23-8.85.48-12.75,1.35-2.57.57-5.17,1-7.78,1.46a1.47,1.47,0,0,0,.06-.14,96.18,96.18,0,0,0,2.18-9.67l.54-2.18a1.15,1.15,0,0,0,.21-.87A181.07,181.07,0,0,1,146,103.48c.92-2.53,1.92-5.12,2.85-7.73.4.64.8,1.28,1.22,1.91a33.88,33.88,0,0,0,2.38,6.86,10.75,10.75,0,0,0,2.2,3c.89,3.56.17,7.44.78,11.06a.69.69,0,0,0,.53.66c2.23.43,3.9-1.19,5.3-2.75.87-1,1.71-2,2.54-3,.21.37.41.75.63,1.12.46.81,1.78-.74,1.63-1.35s-.35-1.26-.54-1.88c.7-.87,1.41-1.74,2.15-2.58,3-3.42,5.61-7.12,8.47-10.63l1.37-1.71c-.43,4.65-1,9.29-1.6,13.93a40.79,40.79,0,0,0-1.25,9.25c0,2.06,3.19-.71,3.32-1.9v0c-.11,1.48-.19,3-.18,4.45,0,1.74,2.44-.73,2.6-1.5,1.81-8.46,1.37-17.3,3.14-25.75.67-3.2,2-8.88,0-12.12.14-1.28.25-2.57.27-3.88s-1.9.52-1.94,1.34c0,.51-.06,1-.1,1.51a2.46,2.46,0,0,0-.28.27,20.39,20.39,0,0,0-1.57,2.25s0,0-.07-.08c-.63-.68-1.57,1.1-1.58,1.54s-.06,1-.08,1.54a.25.25,0,0,0,0,.07c-.55.72-1.09,1.44-1.62,2.17-3.39,1.56-5.56,4.74-7.59,7.74q-2.37,3.48-4.81,6.9a8.43,8.43,0,0,1-2.14-.64,61.81,61.81,0,0,0-5.52-7.77c-4.48-5.46-8.4-11.3-12.67-16.91-.06-.2-.12-.4-.17-.6s-.26-.34-.47-.22c-.49-.63-1-1.26-1.47-1.88-.35-.45-1.35.78-1.1,1.23l2.35,4.29a16.63,16.63,0,0,0,1.26,2.84,5.21,5.21,0,0,0-.48.76c0-.43.06-.87.1-1.3-.8-.56-1.58-1.13-2.37-1.71-.78,7.17-1.73,14.31-2.73,21.47-.62,4.43-1.59,9-1.83,13.44,0,.94-.29,2.09-.42,3.24q-.87,3-1.82,5.93c-1.06,3.28-2.83,6.28-3.28,9.7l-4.56.66c-.93.13-2.28,2.58-.89,2.44,5.51-.57,11-1.12,16.48-2,1-.16,2.13-.39,3.26-.63-4.15,1.34-8.34,2.59-12.53,3.84.22-.7.23-1.46-.64-1.27-6.56,1.45-13,4.46-19.26,7.59-2.5.91-5,1.86-7.42,2.89-8,3.38-16.07,6.53-24,10.09-4.12,1.85-8.07,4-12.14,5.95l-.51.24.45-1.76A3.51,3.51,0,0,0,71,162.38c1.06-4.88,2-9.76,3-14.63q1.25-4.14,2.52-8.28l2.88-6.54c2.91-2,5.86-4,8.87-5.85l2.15-1.34c2.46-1.42,4.91-2.87,7.37-4.31,4.77-2.78,10-4.56,14.15-8.31a3.16,3.16,0,0,0,.56-.81l2.84-1.68c3.6-1.51,7.18-3.08,10.69-4.82.85-.42,2.14-3,.39-2.43l-5.15,1.84a.94.94,0,0,0-.42.13l-.12.06a320.3,320.3,0,0,0-34,14l-1.94,1c.91-2.17,1.81-4.35,2.68-6.53,5-12.65,10.06-25.28,14.8-38q8.27-4.28,16.6-8.43c5.41-1.89,10.76-3.83,16-5.49,20.61-6.49,40.5-14.7,60.56-22.64C196.28,39,197.82,36.23,196.24,36.54ZM73.68,88.38a4.25,4.25,0,0,1-.8,0h-.06L74,87.61C73.89,87.86,73.78,88.12,73.68,88.38ZM180.3,85.11a3.4,3.4,0,0,1,.61-.86c-.14,1-.28,2.11-.44,3.15l-.24,0A4.24,4.24,0,0,0,180.3,85.11ZM167.53,101c1.81-2.74,3.76-6.78,6.89-8.45-.44.67-.87,1.34-1.3,2-.69.91-1.39,1.76-1.87,2.45-1.4,2-2.82,4-4.2,6-.58.85-1.2,1.69-1.83,2.52a1.74,1.74,0,0,0-.14-.88Q166.33,102.8,167.53,101Zm-8.05,10.51c.12.19.25.37.38.56-.58.67-1.15,1.34-1.73,2a29.18,29.18,0,0,1-.42-4.59A5.26,5.26,0,0,0,159.48,111.5ZM146.79,92.12c.26.54.54,1.08.83,1.61-.84,2.37-1.78,4.73-2.76,7.08C145.55,97.93,146.2,95,146.79,92.12Zm-12.34,43.47a13.11,13.11,0,0,0,.89-2.05c0,.64,0,1.27.06,1.9Zm-69.54,1.94c-2.16,1.44-4.25,3-6.37,4.51l-.28.22-.29.11a32.18,32.18,0,0,1,3.57-3c.24-.17.94-1.3.19-1.2-2,.25-3.64,1.22-5.51,1.63,0-.11,0-.23.05-.35,3-.86,5.5-3.16,8.4-4.27q3.17-1.22,6.25-2.63c-.27.56-.52,1.12-.78,1.68C68.38,135.31,66.63,136.39,64.91,137.53ZM59.8,164c.45-1,.9-1.92,1.34-2.88a3.34,3.34,0,0,0,.38.17c-.24.55-.48,1.08-.73,1.62Zm-2.08,4.46.09-.19,1-1.26s0,0,0,.08c-1.33,2.78-2.06,7.14-4.13,9.48l-1.28.55C54.8,174.23,56.35,171.41,57.72,168.47Zm-6.39,13.79a2.4,2.4,0,0,0,.07-.43c.16-.43.32-.85.49-1.27.38-.13.75-.3,1.13-.46a1.55,1.55,0,0,0,0,.22c0,.36.18.49.37.5ZM58.09,178l-2.64,1.54c-.26.15-.51.33-.77.49a1.87,1.87,0,0,0,.22-.27l.49-.77c1-.51,1.9-1,2.8-1.49C58.16,177.65,58.12,177.81,58.09,178Zm.79-3.27-1.12.5c.23-.42.45-.9.67-1.41.13.13.35.16.7.06C59,174.14,59,174.42,58.88,174.71Zm.79-4Q61,167.34,62.32,164c.24-.62.49-1.25.76-1.88l.63-.69a3.85,3.85,0,0,0,.47-.19l-.9,2.79c-.44,1-.88,1.93-1.34,2.88-.52,1.1-1,2.19-1.46,3.3Zm4.17,4c-1,.56-2.05,1.12-3.06,1.69,0-.11.08-.21.11-.32l3-1.51Zm.65-2.8c-.86.44-1.73.88-2.6,1.3.08-.2.16-.41.25-.62a3.66,3.66,0,0,0,.47-.3l2-1C64.58,171.57,64.53,171.76,64.49,172Zm1.16-4.46-.55.25c.87-2.31,1.67-4.65,2.44-7l.2-.45C67,162.67,66.31,165.07,65.65,167.49Zm13.06-3-3.68,2c-2.3,1.23-4.63,2.46-7,3.69,0-.14.07-.29.1-.43C71.69,168,75.19,166.21,78.71,164.47Zm-13.57-6.12c-.2.12-.39.22-.58.31,1.54-3.55,3-7.24,3.29-10.91,0-.34-.06-.5-.21-.55q2.07-4.44,4.15-8.89l1-.75C70.17,144.46,67.53,151.37,65.14,158.35ZM96.66,74,98,73.71l-1.5.79Zm-2.54,7.41.54-1.6.74-.39.21-.11c-.41.89-.81,1.79-1.2,2.68s-.66,1.5-1,2.25C93.64,83.29,93.88,82.35,94.12,81.41Zm-.74-6.17c-.12.35-.23.71-.34,1.07l-.11.06c0-.31,0-.56-.38-.6Zm-4,2.6a1.8,1.8,0,0,0-.1.33,2.56,2.56,0,0,1,0,.27c-2,1.12-4,2.29-6.06,3.35Zm-11.6,1.58.92-.35a17.2,17.2,0,0,0,2.27-.45l-.46.25c-.86.49-1.82,1.25-2.84,1.93C77.69,80.34,77.72,79.88,77.74,79.42Zm-1.28.36c-.07.41-.16.81-.25,1.2C75.33,80.53,75.74,80.2,76.46,79.78Zm7,3.67c-2,1.08-5.15,3.54-7.92,4.53.26-.59.51-1.18.73-1.78,4.4-1.21,8.66-3.68,12.58-5.7,0,0,0,0,0,.08C87,81.53,85.22,82.48,83.44,83.45Zm6.86-1.37,1.28-.66c-1.41,3.81-2.65,7.69-3.83,11.59C88.56,89.43,89.52,85.17,90.3,82.08ZM89,123.66c-2.21,1.28-4.43,2.55-6.68,3.77l-.58.33.34-.81C84.31,125.76,86.63,124.69,89,123.66Zm-4.71-7.73c-.64,1.59-1.31,3.16-2,4.74.27-.93.56-1.87.82-2.8.06-.19.11-.38.16-.56,2.57-7.13,5-14.3,7.24-21.54.57-1.38,1.15-2.77,1.72-4.16,1.87-4.51,3.71-9.06,5.73-13.52l1.68-.87C94.7,90.19,89.46,103.05,84.26,115.93ZM110.73,67c-1.8.57-3.61,1.12-5.43,1.63q6.7-3.36,13.5-6.45c.91-.28,1.83-.54,2.74-.81C117.92,63.24,114.32,65.13,110.73,67Zm25.09-14.72c8-3.43,16.25-6.46,24.47-9.37q8-2.84,16.27-5.06c1.73-.47,3.46-.92,5.21-1.29l-.3.11a1.3,1.3,0,0,0-.37.09l-1.06.43c-6.44,2.26-12.87,4.56-19.33,6.76-7.64,2.6-15.31,5.13-23,7.73C137.11,51.9,136.46,52.1,135.82,52.31Z"/><path d="M292.36,19.74q-22.33-.79-44.68-1.33Q258.34,18,269,17.36c1.22-.07,3-3.16,1.19-3.11-34.17,1.1-68.32,1.46-102.46,2.67q-35.18-.47-70.35-.76c2.87-.32,5.73-.71,8.58-1.19.84-.14,2.54-2.25,2.39-3.22-17.6.88-35.21,1.54-52.82,1.82-3,.41-6,.82-9.06,1.21L45,15c-.09-.43-.16-.86-.24-1.28H42c.1.53.2,1.07.31,1.6-.81.1-1.62.2-2.43.32l-23.51-.27c-.77,0-1.85,1.81-1.06,1.83l13.41.28c-2,.32-3.91.67-5.86,1.05a1.89,1.89,0,0,0-.75.49c-2.78-.21-5.56-.37-8.34-.4-1,0-2.77,2.53-1.53,2.64,10,.89,19.9,2.35,30,2.78l2,.06c.57,3.24,1,6.52,1.32,9.79a60.94,60.94,0,0,1-1.5,10.66c-2,8.13-5.16,16.28-5.22,24.74,0,1.46,2.08-.56,2.22-1.23,1.61-7.65,3.45-15.18,5.35-22.76.21,4.85.27,9.7.28,14.56,0,8.57-.17,17.13-.36,25.69-.13,6-1.26,12.2.64,18,.2.61.94.43,1.36.3,5.1-1.52,4-10,3.84-13.85-.38-11.19-1-22.38-1.38-33.57a3.54,3.54,0,0,0,.79-1.25c1.38-9.45-.66-19-1.51-28.52,0-.26,0-.53,0-.79,0-.54.07-1.09.11-1.64,7.34.13,14.69.05,22-.12,22-.51,44-1.06,66-2.08,10.8-.5,21.59-1,32.38-1.4,40.22.78,80.43,1.31,120.64,1.23C292.1,21.86,293.27,19.77,292.36,19.74Zm-258,.34c2.93-.6,5.85-1.23,8.71-1.58.18.72.35,1.45.51,2.17C40.55,20.58,37.47,20.35,34.4,20.08Zm16-.39c0-.36-.05-.73-.09-1.09.85-.08,1.7-.15,2.56-.2A12.61,12.61,0,0,1,50.35,19.69Zm26.83.69c-8.07.25-16.15.45-24.22.43A22.94,22.94,0,0,1,59,19.53a53.86,53.86,0,0,0,7-1.24l44.28,1C99.27,19.71,88.23,20,77.18,20.38Z"/><path d="M333.68,184.22a4.71,4.71,0,0,1-3.79-2.52q-7-.1-14.1-.17c.08-.5-.06-.89-.56-.94a12.93,12.93,0,0,0-2.85,0c0-.84,0-1.68,0-2.53,0,.1,0,.2,0,.3.06,1.13,1.76-.37,1.79-1v0c2.51-.25,5-.56,7.5-1a9.16,9.16,0,0,1-1.68-2.78c-1.89.17-3.79.32-5.68.45.06-1.35.12-2.7.17-4l.43-.12c.7-.23,1.69-2,1.36-2.64,2.32-3.64,1-10.39.85-14.1-.18-6.69-.89-13.35-1.65-20,.18-5.75.26-11.51-.08-17.21q-.9-15.67-1.77-31.35-.44-8-.88-16a45.55,45.55,0,0,0-.55-4.66c.11-6.36.13-12.94-1.34-18.74-.12-.48-.66.18-.71.4a62.91,62.91,0,0,0-1,8.41,3.05,3.05,0,0,0-1,1.63c-.27,9.46-1.2,18.67-.7,28.17.24,4.69.66,9.37,1.17,14q-.12,26.25-.11,52.51c0,5.92,0,11.84,0,17.77-4.32.36-8.74.42-13,.84-7.79.78-15.47,2.13-23.23,3.13-15.69,2-31,6.21-46.61,9a1.56,1.56,0,0,0-.73.47l-57.67.09c-19,0-38.55-1-57.52.9-.51.05-1.54,1.56-.76,1.65,18.52,2.1,37.74.87,56.36.9l46.87.07c-.36.74-.38,1.49.43,1.41,6.53-.18,13.06-.7,19.59-1.37,25.43.06,50.86.19,76.28,0v0c1.22,0,2.44,0,3.66.09v-.14q12.9-.12,25.79-.39Zm-18.81-27.71c.06,1.37.86,6.2.53,8.82a9.9,9.9,0,0,1-.56-1.13.26.26,0,0,0-.15-.14Q314.79,160.3,314.87,156.51ZM313,135.23c-.09,4.09-.24,8.19-.38,12.28a.75.75,0,0,0-.17.1q0-9,0-17.94ZM262.1,177.61a1.79,1.79,0,0,0,.94-1.24c2.76-.48,5.53-.93,8.31-1.31,7.74-1.05,15.43-2.26,23.2-3.07,4.51-.48,9.42-.37,14.1-.9,0,1.1,0,2.19,0,3.29-2.9.18-5.79.36-8.67.58-10.28.81-20.54,1.86-30.8,2.86-7,.68-13.93,1.55-20.9,2.43C252.91,179.51,257.51,178.68,262.1,177.61Zm46.52,3.85q-21.67-.17-43.36-.08,1.37-.15,2.73-.27c9.66-.89,19.29-2,29-2.61,3.89-.26,7.8-.46,11.7-.73,0,1.21,0,2.43,0,3.65Z"/><path d="M293,89.2a15,15,0,0,0-2.61,1.65,11.61,11.61,0,0,0-.46-1.41,10.31,10.31,0,0,0,.26-2.11c1.36-3.59,1.19-7.46-2-10.42-2.56-2.38-6.47-3.48-9.75-4.35-5-1.3-10.16-2.18-15.19-3.24-4.42-.93-8.87-1.7-13.34-2.38l-4.21-1c-9.16-2.2-18.38-4.2-27.66-5.93a.46.46,0,0,0-.34-.17l-1-.08q-5.47-1-11-1.86c-6.59-1-13.29-1.86-19.93-2.46-3.27-.3-7.39-.06-11.16-.5-1.74-.68-3.51-1.21-5-1.72a.94.94,0,0,0-.74.14c-1.12-.57-2.94,2-2,2.55a10.48,10.48,0,0,0,2.07.79c.35.19.73.37,1.11.53-.29.5-.37,1,.05,1.13l0,0A18.86,18.86,0,0,1,175,60.44a.44.44,0,0,0,.46.33h.11c.86.52,1.71,1.06,2.58,1.6-.17.46-.15.84.27.85l1.18,0,.27.16a1.11,1.11,0,0,0,1.18-.13c11.38.28,22.69,1.13,34,2.39-.37,4.4-1.48,8.86-2.11,13.22-.72,5.08-1.38,10.17-2,15.27-1.11,8.92-3.27,17.63-4.93,26.44l-.24.76c-.49,1.15-1,2.3-1.51,3.45-.32.7-.2,1.08.09,1.19-.14.47-.28.94-.41,1.41q-5.1,2.16-10.17,4.37-6.07,2.53-12.18,5c-6.07,2.44-12.17,4.8-18.36,6.92-2.78,1-5.55,1.92-8.38,2.72a47,47,0,0,1-6.36,1.81c.34-.81.43-1.91-.63-1.38-1.9,1-3,.94-4.2,2.86-.37.6-.67,1.73.22,2,3.44,1.16,8-.61,11.8-2-2.6,1.35-5.19,2.72-7.75,4.12-.61.33-3.07,3.16-1.26,3.44,3.91.59,7.75-1.3,11.25-2.83l1.61-.67c-1.23.74-2.45,1.48-3.66,2.23-.74.46-2.31,3.07-.48,3a16.81,16.81,0,0,0,3.17-.44l-.5.24c-1,.47-2.19,3.42-.43,2.64C183.25,150,209.17,139,235.24,128.42c8.68-3.54,17.32-7.17,25.82-11.12-.05.49.05.92.33,1.07l-1.49.76c-9.14,4.62-18.63,8.51-27.86,12.93-.92.44-2.07,3.21-.4,2.48,14.06-6.16,28.23-11.83,41.21-20.14,8.47-5.42,18.46-14.51,20.63-24.85A.3.3,0,0,0,293,89.2ZM278.31,76.77c.49.14,1,.3,1.49.47a36.14,36.14,0,0,1,5.39,5.6,38.35,38.35,0,0,0-6-4.6c-1.37-.85-2.76-1.64-4.18-2.39C276.11,76.15,277.22,76.45,278.31,76.77ZM219.9,66.25l1.51.19a1,1,0,0,0,0,.39c.67,2.39-.87,5.3-1.48,7.65-.42,1.65-.86,3.31-1.3,5h-.13C219.13,75.07,219.62,70.67,219.9,66.25Zm-3-.35.64.08c-.13,1.78-.29,3.55-.48,5.32-.08-.34-.43-.29-.8,0C216.54,69.48,216.78,67.69,216.93,65.9Zm-2.64,37.88q1.59-5.27,3.17-10.52c.38-1.28.74-2.58,1.08-3.87a3.79,3.79,0,0,1-.42-3.61c.86-2.26,2-4.4,3-6.6.06-.26.12-.51.19-.77.89-3.63,3-7.76,2.8-11.63,9,1.17,17.95,2.56,26.9,4.09l3.51.61c3.09.91,6.17,1.89,9.2,3,6.79,2.48,18.7,7.44,22.78,15.1a19.22,19.22,0,0,1-2.77,3c-.07.15-.13.29-.21.44-1.25,2.16-4.07,3.43-6.17,4.59-3.18,1.75-6.4,3.41-9.62,5.08-1.24.65-2.49,1.29-3.73,2-.56.29-2.73,1.81-1.08.44a4.84,4.84,0,0,1-6.46-.19c-3.52,1.6-7,3.22-10.6,4.74-10.61,4.54-21.2,9.11-31.85,13.54.19-1.61.36-3.12.59-4.32.35-1.85-2.12-.19-2.39.75s-.47,1.58-.69,2.37C212.18,115.88,213.2,109.83,214.29,103.78ZM275,102.11l-.62.08c1.19-.74,2.38-1.47,3.61-2.17A14.44,14.44,0,0,0,280.71,98a38.83,38.83,0,0,0,5.16-4.14,30,30,0,0,1-5,5.74,61.49,61.49,0,0,1-5.48,4.35C275.85,103.11,276.09,102,275,102.11Zm-22.78,10.67q-2.16,1.05-4.35,2c-5.18,2.37-10.6,4.29-15.89,6.41-.58.23-1.19.49-1.82.77l8.21-4.24q5.74-2.44,11.67-4.45l2.16-.73A1.11,1.11,0,0,0,252.22,112.78Zm-91.55,37.43c8.4-4.23,17-8.23,25.56-12.07,5.56-2.29,11.09-4.65,16.62-7-5.24,2.85-10.46,5.76-15.86,8.24-1.88.86-3.75,1.75-5.62,2.65l-4.09,1.65q-8.19,3.33-16.46,6.48Zm68.94-22.61c-18.43,7.56-36.72,15.35-54.86,23.53,1.88-.95,3.76-1.91,5.66-2.85,7.53-3.73,14.93-7.72,22.32-11.72l4.06-1.64a.81.81,0,0,1,0,.16c-.08,1.5,1,1.57,2.08.93a7.37,7.37,0,0,0,2.72-3l4.39-1.77c11.71-4.75,23.6-9.09,35.1-14.32,3.93-1.79,12.33-3.33,14.28-8.08,2.26-.92,4.64-1.44,6.82-2.48l-.56.44c-2.08,1.67-4,3.53-5.94,5.36l-1.76.84C252.68,118.31,241.1,122.89,229.61,127.6Zm33.79-10.25,3.82-3,3.89-1.94c1.83-.93,3.76-1.91,5.68-3A101.45,101.45,0,0,1,263.4,117.35Zm24.44-21.28c-.41,4.34-6.29,7.47-9.59,9.48-.56.34-1.14.66-1.71,1q2.19-2,4.3-4.09a40.34,40.34,0,0,0,5.92-6.32c.31-.43.63-.91.94-1.42.06-.06.11-.13.16-.19A10.06,10.06,0,0,1,287.84,96.07Zm4.29-5.17a16.51,16.51,0,0,1-1.41,3.17,9.52,9.52,0,0,0-.11-2.39C291.53,90.83,292.34,90.21,292.13,90.9Z"/></svg>